<svg id="visual" viewBox="0 0 900 600" width="900" height="600" xmlns="http://www.w3.org/2000/svg" xmlns:xlink="http://www.w3.org/1999/xlink" version="1.1"><path d="M0 157L13.7 152C27.3 147 54.7 137 82 130C109.3 123 136.7 119 163.8 123C191 127 218 139 245.2 151C272.3 163 299.7 175 327 180C354.3 185 381.7 183 409 179C436.3 175 463.7 169 491 162C518.3 155 545.7 147 573 143C600.3 139 627.7 139 654.8 151C682 163 709 187 736.2 193C763.3 199 790.7 187 818 175C845.3 163 872.7 151 886.3 145L900 139L900 0L886.3 0C872.7 0 845.3 0 818 0C790.7 0 763.3 0 736.2 0C709 0 682 0 654.8 0C627.7 0 600.3 0 573 0C545.7 0 518.3 0 491 0C463.7 0 436.3 0 409 0C381.7 0 354.3 0 327 0C299.7 0 272.3 0 245.2 0C218 0 191 0 163.8 0C136.7 0 109.3 0 82 0C54.7 0 27.3 0 13.7 0L0 0Z" fill="#1e2844"></path><path d="M0 235L13.7 228C27.3 221 54.7 207 82 202C109.3 197 136.7 201 163.8 204C191 207 218 209 245.2 222C272.3 235 299.7 259 327 261C354.3 263 381.7 243 409 234C436.3 225 463.7 227 491 228C518.3 229 545.7 229 573 230C600.3 231 627.7 233 654.8 240C682 247 709 259 736.2 257C763.3 255 790.7 239 818 226C845.3 213 872.7 203 886.3 198L900 193L900 137L886.3 143C872.7 149 845.3 161 818 173C790.7 185 763.3 197 736.2 191C709 185 682 161 654.8 149C627.7 137 600.3 137 573 141C545.7 145 518.3 153 491 160C463.7 167 436.3 173 409 177C381.7 181 354.3 183 327 178C299.7 173 272.3 161 245.2 149C218 137 191 125 163.8 121C136.7 117 109.3 121 82 128C54.7 135 27.3 145 13.7 150L0 155Z" fill="#0f2b42"></path><path d="M0 331L13.7 320C27.3 309 54.7 287 82 273C109.3 259 136.7 253 163.8 260C191 267 218 287 245.2 301C272.3 315 299.7 323 327 321C354.3 319 381.7 307 409 301C436.3 295 463.7 295 491 292C518.3 289 545.7 283 573 286C600.3 289 627.7 301 654.8 312C682 323 709 333 736.2 329C763.3 325 790.7 307 818 292C845.3 277 872.7 265 886.3 259L900 253L900 191L886.3 196C872.7 201 845.3 211 818 224C790.7 237 763.3 253 736.2 255C709 257 682 245 654.8 238C627.7 231 600.3 229 573 228C545.7 227 518.3 227 491 226C463.7 225 436.3 223 409 232C381.7 241 354.3 261 327 259C299.7 257 272.3 233 245.2 220C218 207 191 205 163.8 202C136.7 199 109.3 195 82 200C54.7 205 27.3 219 13.7 226L0 233Z" fill="#072d3c"></path><path d="M0 469L13.7 461C27.3 453 54.7 437 82 416C109.3 395 136.7 369 163.8 375C191 381 218 419 245.2 436C272.3 453 299.7 449 327 441C354.3 433 381.7 421 409 423C436.3 425 463.7 441 491 440C518.3 439 545.7 421 573 406C600.3 391 627.7 379 654.8 385C682 391 709 415 736.2 413C763.3 411 790.7 383 818 370C845.3 357 872.7 359 886.3 360L900 361L900 251L886.3 257C872.7 263 845.3 275 818 290C790.7 305 763.3 323 736.2 327C709 331 682 321 654.8 310C627.7 299 600.3 287 573 284C545.7 281 518.3 287 491 290C463.7 293 436.3 293 409 299C381.7 305 354.3 317 327 319C299.7 321 272.3 313 245.2 299C218 285 191 265 163.8 258C136.7 251 109.3 257 82 271C54.7 285 27.3 307 13.7 318L0 329Z" fill="#0c2e35"></path><path d="M0 601L13.7 601C27.3 601 54.7 601 82 601C109.3 601 136.7 601 163.8 601C191 601 218 601 245.2 601C272.3 601 299.7 601 327 601C354.3 601 381.7 601 409 601C436.3 601 463.7 601 491 601C518.3 601 545.7 601 573 601C600.3 601 627.7 601 654.8 601C682 601 709 601 736.2 601C763.3 601 790.7 601 818 601C845.3 601 872.7 601 886.3 601L900 601L900 359L886.3 358C872.7 357 845.3 355 818 368C790.7 381 763.3 409 736.2 411C709 413 682 389 654.8 383C627.7 377 600.3 389 573 404C545.7 419 518.3 437 491 438C463.7 439 436.3 423 409 421C381.7 419 354.3 431 327 439C299.7 447 272.3 451 245.2 434C218 417 191 379 163.8 373C136.7 367 109.3 393 82 414C54.7 435 27.3 451 13.7 459L0 467Z" fill="#162e2e"></path></svg>