<?xml version="1.0" encoding="utf-8" ?><svg xmlns="http://www.w3.org/2000/svg" xmlns:xlink="http://www.w3.org/1999/xlink" width="1024" height="1024" viewBox="0 0 1024 1024"><path fill="#10141B" d="M0 0L1024 0L1024 1024L0 1024L0 0Z"/><path fill="#F3AD56" d="M940.529 433.053L960.485 433.081L960.49 588.481L940.966 588.482C940.979 580.259 941.091 571.83 940.79 563.632C940.202 565.003 939.574 566.357 938.905 567.691C926.582 592.281 898.852 595.597 875.938 584.042C868.024 579.33 861.908 572.672 857.206 564.789C848.798 550.919 846.427 534.214 850.644 518.552C854.443 503.929 863.228 491.13 876.421 483.507C887.791 476.885 901.357 475.151 914.027 478.7C927.701 482.398 933.82 489.408 940.499 500.927L940.529 433.053Z"/><path fill="#10141B" d="M901.35 496.558C921.907 494.713 940.046 509.934 941.797 530.499C943.549 551.064 928.246 569.133 907.673 570.791C887.233 572.438 869.305 557.255 867.564 536.822C865.824 516.389 880.925 498.392 901.35 496.558Z"/><path fill="#F3AD56" d="M665.945 438.711C680.882 437.879 698.828 442.569 711.137 451.165C724.722 460.652 730.508 471.19 733.413 487.15L713.02 487.028C706.414 470.843 694.823 461.007 677.404 458.987C598.584 449.845 596.001 574.665 674.022 570.288C697.456 568.973 711.185 553.824 714.142 530.633L664.688 530.521L664.703 522.228L664.756 512.057L735.009 512.079L734.974 588.446L717.852 588.42C716.996 580.394 716.361 572.346 715.949 564.286C706.078 581.113 692.322 588.363 672.941 590.214C654.809 591.92 636.745 586.327 622.749 574.675C611.964 565.596 602.96 552.437 599.045 538.875C584.905 489.887 614.125 442.348 665.945 438.711Z"/><path fill="#FEFEFE" d="M526.299 476.704C544.893 474.041 567.249 483.415 577.526 499.205C586.232 512.581 586.687 524.199 586.534 539.447L495.993 539.195C496.642 543.26 497.453 546.891 498.509 550.845C504.818 574.469 540.939 579.859 556.628 562.969C559.12 560.286 560.417 557.815 562.059 554.603C563.91 553.448 580 553.86 583.616 553.862C575.852 574.531 561.919 587.556 539.44 590.117C523.854 591.924 508.322 588.791 495.698 579.1C472.007 560.912 467.752 520.223 486.454 497.151C496.616 484.614 510.281 478.258 526.299 476.704Z"/><path fill="#10141B" d="M525.698 494.64C546.028 492.009 561.667 503.172 564.923 523.489L536.75 523.484L496.027 523.523C499.281 506.66 508.627 497.433 525.698 494.64Z"/><path fill="#FEFEFE" d="M235.292 476.71C265.483 474.081 292.693 493.858 294.869 525.042C295.221 530.085 295.089 534.438 294.668 539.474C265.503 539.592 232.775 538.413 204.063 539.436C207.76 567.469 233.213 581.117 259.479 567.613C264.326 565.121 268.213 559.013 270.617 554.206C273.352 553.446 288.221 554.255 291.632 554.409C278.538 592.145 233.834 601.218 203.125 578.186C179.316 560.33 177.486 517.187 196.615 495.464C207.229 483.411 219.216 478.072 235.292 476.71Z"/><path fill="#10141B" d="M234.349 494.616C256.151 493.485 268.77 501.368 273.168 523.487L244.75 523.491L204.703 523.486C208.098 506.636 217.341 497.636 234.349 494.616Z"/><path fill="#FEFEFE" d="M112.804 435.205C127.684 433.208 146.424 437.873 157.663 448.056C167.422 456.898 171.381 466.27 172.211 479.222L150.538 479.218C146.705 462.858 136.642 455.312 120.03 454.476C104.314 453.686 89.4564 461.904 89.8109 479.337C90.22 499.452 122.105 501.775 136.332 506.859C145.741 510.222 156.11 512.79 163.664 520.139C177.832 534.304 176.236 562.824 161.83 576.428C149.477 588.093 136.871 590.492 120.674 590.658C90.961 590.205 66.5669 575.005 64.3294 543.472C71.7501 543.397 79.35 543.506 86.7861 543.529C90.0207 563.609 105.905 571.928 124.824 570.961C133.949 570.494 141.158 567.84 147.449 561.013C151.359 556.77 152.755 550.717 152.204 545.106C150.4 525.22 122.197 523.627 107.103 518.803C97.5115 516.088 88.1731 513.082 80.3146 506.685C64.2244 493.587 64.5428 466.555 77.5084 451.394C86.3518 441.053 99.4459 436.399 112.804 435.205Z"/><path fill="#FEFEFE" d="M311.277 448.499L332.013 448.537L332.076 477.677C340.533 477.485 349.463 477.617 357.956 477.609L357.901 494.611L332.006 494.521L331.977 531.118C331.971 539.185 331.468 547.477 332.765 555.452C335.518 572.376 346.628 571.058 360.113 570.912L360.313 578.479L360.352 588.691C347.137 588.725 332.484 590.379 322.324 580.405C309.357 567.676 311.486 544.967 311.476 528.031L311.479 494.864L295.065 494.837L295.044 477.546L311.274 477.569C311.219 467.879 311.22 458.189 311.277 448.499Z"/><path fill="#FEFEFE" d="M382.257 448.729C388.994 448.594 395.732 448.541 402.47 448.57L402.44 477.755L428.12 477.834L428.191 494.479L402.423 494.484L402.425 532.118C402.44 539.787 402.106 547.252 403.085 554.884C405.288 572.07 416.39 570.987 430.046 570.977L430.054 579.714L430.017 588.607C418.501 588.718 401.22 589.791 392.615 580.818C379.451 567.09 381.933 545.461 381.971 528.044L382.043 494.742L365.881 494.775L365.895 477.547L381.523 477.511C381.519 473.731 381.04 450.332 382.257 448.729Z"/><path fill="#FEFEFE" d="M443.464 433.008L462.697 433.062L462.702 588.468L443.408 588.456C443.048 572.076 443.358 554.481 443.354 538.021L443.464 433.008Z"/><path fill="#F3AD56" d="M797.698 477.595C800.174 477.388 803.223 477.379 805.762 477.305L805.744 498.197C769.804 502.095 771.455 522.091 771.54 551.521L771.596 588.512L751.259 588.518L751.234 577.25L751.325 477.944C757.931 477.863 764.678 477.936 771.297 477.938C771.313 485.124 771.206 492.31 770.978 499.492C777.058 486.773 783.809 480.8 797.698 477.595Z"/><path fill="#F3AD56" d="M816.855 477.89L836.461 477.907L836.402 588.458L817.011 588.423L816.855 477.89Z"/><path fill="#F3AD56" d="M823.396 435.753C830.867 434.077 838.276 438.801 839.906 446.282C841.537 453.764 836.767 461.143 829.276 462.728C821.849 464.299 814.548 459.579 812.931 452.162C811.315 444.746 815.99 437.415 823.396 435.753Z"/></svg>