<?xml version="1.0" encoding="utf-8" ?><svg xmlns="http://www.w3.org/2000/svg" xmlns:xlink="http://www.w3.org/1999/xlink" width="1024" height="1024" viewBox="0 0 1024 1024"><path fill="#14AD7D" d="M468.691 293.767C469.764 293.685 470.838 293.627 471.914 293.592C487.264 293.128 501.088 299.238 512.14 309.685C525.323 322.252 533.072 339.473 533.734 357.673C534.106 366.165 533.375 375.01 533.658 383.764C542.81 373.697 550.75 366.623 562.847 360.104C569.358 356.595 578.157 353.674 583.511 348.897C586.386 338.395 583.186 325.131 586.524 314.72C588.941 307.179 594.937 300.793 601.955 297.236C608.833 293.665 616.878 293.084 624.197 295.63C628.935 297.289 633.231 300.213 636.687 303.836C652.342 320.243 640.46 340.036 647.79 350.627C651.5 355.986 662.184 359.011 667.923 362.043C683.488 370.266 697.791 384.727 705.287 400.698C709.99 410.72 711.889 421.874 708.005 432.503C705.309 439.88 699.756 445.549 692.689 448.817C679.059 455.12 664.239 450.508 655.584 438.543C651.801 433.313 649.381 427.326 645.101 422.396C640.295 416.878 634.167 412.671 627.291 410.169C617.308 406.568 607.575 406.964 597.984 411.51C589.493 415.48 582.93 422.666 579.744 431.481C572.838 450.953 589.763 468.516 607.751 472.047C649.193 480.184 688.427 493.021 708.373 533.88C719.573 557.414 721.146 584.389 712.758 609.066C705.647 629.313 691.653 646.422 673.218 657.407C667.065 661.134 660.818 663.906 654.361 667.016C650.063 668.956 649.179 669.698 646.231 673.142C644.014 688.585 649.237 707.988 638.363 719.36C615.102 743.684 580.912 723.896 584.825 691.751C585.258 688.199 584.477 676.792 584.227 673.141C577.574 665.616 569.955 664.779 561.217 660.213C549.83 654.263 541.66 646.821 533.839 636.725C533.911 656.275 535.729 676.38 527.693 694.346C521.156 708.365 510.007 720.27 495.659 726.391C481.752 732.324 464.595 732.039 450.632 726.468C433.904 719.795 420.669 705.209 412.02 689.772C409.586 685.428 407.613 680.246 405.626 675.619C396.997 673.731 389.538 672.358 381.365 668.694C364.311 661.049 346.704 643.705 340.207 626.102C334.764 611.358 335.776 599.62 342.142 585.598C339.038 583.671 336.048 581.565 333.187 579.293C301.538 553.935 295.122 507.094 319.829 474.595C323.42 469.872 327.528 465.813 331.234 461.193C330.345 453.868 328.705 445.954 328.573 438.621C327.83 397.164 358.005 360.529 399.431 354.258C402.626 344.46 411.747 328.893 418.508 321.286C432.612 305.417 447.437 295.546 468.691 293.767ZM419.032 351.676C424.178 353.486 430.535 355.306 435.325 357.423C446.706 362.575 455.957 371.5 461.513 382.689C463.088 385.94 465.023 390.499 463.665 394.083C462.876 396.165 461.119 397.705 459.064 398.493C456.965 399.298 454.589 399.305 452.528 398.382C443.125 394.168 447.323 373.238 412.587 368.166C410.774 377.277 410.002 380.918 409.89 390.326C404.214 399.074 395.196 397.689 394.002 387.229C393.472 382.582 394.394 376.437 395.117 371.767C357.275 384.872 338.958 415.467 346.99 455.146C359.765 452.468 366.689 453.296 378.176 460.311C384.926 464.434 388.355 469.593 393.34 473.428C402.275 473.777 404.689 474.362 412.252 468.934C420.6 462.943 415.599 445.787 425.572 444.849C433.05 444.146 434.807 451.284 434.599 457.039C434.298 466.319 430.288 475.091 423.468 481.392C415.098 489.109 406.633 490.225 395.773 490.485C394.86 499.998 392.259 508.056 384.51 514.313C382.347 516.059 379.164 517.491 376.332 517.008C374.088 516.626 372.033 515.192 370.785 513.309C369.587 511.503 369.014 509.134 369.632 507.012C371.538 500.462 384.988 496.959 377.479 482.54C374.733 477.207 369.931 473.223 364.182 471.51C358.293 469.755 349.93 469.958 344.756 473.278C334.116 480.105 325.402 494.744 322.682 506.751C319.301 522.337 322.219 538.628 330.8 552.071C341.045 568.271 359.571 580.894 378.32 570.832C385.164 567.159 386.855 556.319 395.698 557.89C400.436 558.715 403.783 563.751 401.888 567.967C393.42 586.804 376.872 591.414 358.715 591.048C342.265 614.526 366.339 643.303 387.767 653.419C414.813 664.788 457.126 660.788 459.972 624.668C460.455 618.534 458.707 611.974 460.071 606.006C460.468 604.267 462.519 603.062 464.043 602.439C475.988 598.945 475.969 610.271 476.009 618.494C476.063 629.857 475.202 639.414 469.387 649.423C458.287 668.527 442.826 671.379 423.474 676.22C428.547 688.858 442.412 705.188 455.146 710.64C486.708 724.155 515.738 700.091 517.175 667.76C517.839 652.833 517.482 637.686 517.584 622.698C517.443 597.019 517.942 570.972 517.48 545.353C514.22 547.675 510.846 550.502 507.41 552.516C495.535 559.477 479.953 560.789 466.782 556.851C455.342 553.431 444.685 544.627 438.053 534.759C435.161 530.001 433.468 523.781 439.045 520.33C445.631 515.995 450.801 523.043 454.114 528.101C470.469 553.075 507.178 543.721 516.606 517.995C518.363 513.202 517.591 491.964 517.584 486L517.486 436.068C509.722 435.976 502.219 439.316 496.54 444.506C492.843 447.885 491.964 452.07 489.316 456.103C484.154 463.311 473.803 458.308 474.596 450.158C475.299 442.921 481.809 435.073 487.128 430.452C496.344 422.445 505.992 420.564 517.514 418.826L517.597 382.369C517.637 359.944 519.498 340.298 502.177 322.94C494.107 314.705 483.082 310.037 471.552 309.973C470.372 309.973 469.552 310.05 468.388 310.181C451.367 312.647 438.074 322.297 427.934 335.915C424.3 340.763 421.308 346.061 419.032 351.676ZM612.871 310.546C608.607 312.049 604.63 314.356 602.953 318.727C598.157 331.232 605.268 345.731 596.814 357.9C590.467 367.037 580.71 369.193 571.277 374.297C547.051 387.403 533.862 408.017 533.995 435.755C534.059 449.105 533.06 457.594 538.505 470.715C547.058 491.446 562.86 505.944 583.308 514.797C607.687 525.353 631.138 518.572 652.442 538.141C669.156 553.494 674.163 574.403 665.692 595.716C659.912 610.258 646.584 620.944 632.298 626.134C620.157 630.791 605.401 630.157 593.365 624.746C578.188 617.924 568.579 606.869 562.28 591.236C559.603 584.593 557.376 569.448 571.048 573.751C575.996 575.308 577.91 587.242 581.359 593.001C590.152 607.698 607.372 615.108 624.09 611.387C634.017 609.057 642.592 602.834 647.885 594.119C652.79 586.141 654.234 576.51 651.883 567.445C647.182 549.309 628.223 539.756 610.751 538.187C599.475 537.175 588.535 534.673 578.165 530.221C558.31 522.873 547.169 512.282 534 496.377C533.604 524.02 533.964 552.422 533.994 580.125C533.76 606.275 542.407 630.421 566.468 643.892C578.256 650.079 595.793 654.898 599.968 669.474C600.973 672.983 602.383 689.378 601.463 693.776C598.296 708.934 614.043 720.42 625.396 709.236C634.418 700.349 624.775 674.144 633.077 663.543C639.875 653.07 652.705 650.435 663.028 644.472C689.538 629.16 704.823 599.561 701.551 569.283C697.248 529.465 669.596 505.231 632.682 495.285C611.307 489.526 586.997 488.187 572.472 469.777C558.705 452.796 558.61 428.351 572.101 411.13C580.705 400.005 593.45 392.842 607.426 391.276C633.366 388.334 656.274 403.414 667.266 426.045C670.355 432.404 673.296 433.725 679.844 435.661C690.977 433.152 695.782 427.228 692.968 415.762C689.165 400.27 677.52 387.547 664.119 379.446C651.456 371.746 634.591 367.394 630.132 351.223C626.759 338.99 634.345 319.82 621.289 312.159C618.447 310.491 616.053 310.256 612.871 310.546Z"/></svg>