<?xml version="1.0" encoding="utf-8" ?><svg xmlns="http://www.w3.org/2000/svg" xmlns:xlink="http://www.w3.org/1999/xlink" width="1024" height="1024" viewBox="0 0 1024 1024"><path fill="#0FA36C" d="M319.431 277.788C335.4 276.348 358.664 277.631 374.117 280.948C424.239 291.317 468.129 321.307 496.006 364.232C514.307 392.682 524.449 423.485 526.623 457.224C527.103 464.717 527.97 470.655 526.682 478.135C524.399 492.625 502.837 493.464 499.125 479.904C497.414 473.651 497.987 463.837 497.476 457.001C495.742 435.195 489.711 413.948 479.73 394.482C459.721 356.027 425.35 327.018 384.08 313.753C345.48 301.395 298.166 305.061 262.14 323.776C215.48 347.534 182.7 391.843 173.633 443.413C172.64 449.302 171.985 455.244 171.672 461.208C171.284 468.426 172.453 478.015 169.383 484.116C165.386 492.061 160.733 500.272 156.457 508.125L133.45 550.621C129.284 558.159 123.527 567.365 120.604 575.374C119.045 579.647 120.382 585.014 122.679 588.837C130.604 600.456 149.803 593.005 161.44 596.166C174.181 599.627 172.03 612.879 171.994 623.288L171.849 665.907C171.807 679.483 170.092 689.738 177.407 701.755C178.85 704.081 181.116 706.545 183.168 708.347C187.174 711.855 191.993 714.308 197.188 715.482C202.965 716.799 209.731 716.684 215.664 716.625C231.557 716.467 247.656 716.921 263.511 715.985C302.866 713.349 339.774 695.951 366.852 667.272C371.329 662.623 375.531 657.717 379.436 652.579C384.079 646.468 389.812 636.284 397.613 637.27C419.191 640 413.584 658.313 403.653 670.016C396.259 678.729 391.679 684.908 384.016 692.321C352.952 722.239 312.811 740.963 269.926 745.537C249.92 747.582 227.29 745.633 207.013 746.267C188.996 746.831 172.712 740.423 160.071 727.434C141.327 708.174 142.549 686.595 142.489 661.786C142.381 649.59 142.452 637.394 142.702 625.2C128.248 624.644 116.742 623.926 105.326 613.928C96.4412 606.007 91.0557 594.889 90.3484 583.007C89.3644 565.927 97.8979 552.936 105.749 538.674L130.623 493.321C132.501 489.847 141.719 473.817 141.844 470.915C142.21 462.378 142.601 453.559 143.751 444.706C148.799 406.926 164.915 371.484 190.069 342.846C222.962 305.558 269.574 280.98 319.431 277.788Z"/><path fill="#0FA36C" d="M684.111 277.24C732.925 275.741 780.463 292.977 816.972 325.414C852.337 357.447 873.006 394.634 880.68 441.855C882.081 450.473 881.875 469.371 884.375 475.061C886.314 479.475 894.619 493.989 897.251 498.757L919.527 539.566C923.581 546.945 928.62 555.094 931.547 562.874C940.851 587.606 928.181 616.064 902.104 623.162C895.192 625.043 889.56 625.301 882.481 625.552C881.981 629.438 882.067 635.709 882.04 639.739L882.034 669.023C882.061 684.379 883.172 695.603 876.578 709.958C869.456 725.084 856.698 736.823 841.034 742.666C836.209 744.432 831.171 745.554 826.053 746.001C818.188 746.76 805.864 746.362 797.642 746.371C783.55 746.206 769.322 746.775 755.267 745.613C733.246 743.793 711.257 737.543 691.392 727.911C664.685 714.961 641.006 695.501 622.725 672.182C616.934 664.796 608.816 654.952 613.893 645.235C615.856 641.444 619.323 638.655 623.446 637.551C632.522 635.215 636.781 641.184 641.56 647.703C644.158 651.249 646.882 654.701 649.627 658.13C662.739 674.504 678.634 687.001 696.686 697.47C701.689 700.418 707.224 702.563 712.389 704.864C738.443 716.468 763.232 717.217 791.165 716.599C800.535 716.391 810.439 717.097 820.039 716.653C836.211 715.905 849.11 704.926 851.849 688.927C852.921 682.661 852.528 671.683 852.518 664.996L852.575 628.286C852.644 609.904 849.548 593.265 875.16 595.459C888.221 596.578 906.677 595.734 904.498 576.953C903.89 571.707 896.69 560.665 893.966 555.66L867.037 505.733C863.804 499.751 857.185 488.107 854.678 482.589C853.197 479.331 853.057 459.476 852.571 454.035C849.038 414.465 827.167 372.639 797.245 346.938C741.566 298.424 660.321 293.128 598.815 334.006C590.405 339.541 583.511 345.444 576.281 352.283C570.127 357.614 564.257 368.62 555.222 368.592C538.797 368.559 535.753 352.231 545.982 341.008C583.372 299.981 629.135 279.668 684.111 277.24Z"/><path fill="#0FA36C" d="M622.026 508.453C614.406 505.239 609.281 503.215 603.25 497.37C594.056 488.497 589.301 477.705 589.071 464.981C588.59 438.338 608.912 417.294 635.775 417.98C649.498 418.33 658.76 422.646 668.391 432.373C676.959 442.215 680.832 451.509 680.753 464.707C680.68 476.861 677.584 484.872 669.937 494.318C664.225 501.374 658.832 503.052 651.709 508.148C650.672 514.637 650.322 522.053 648.675 528.308C607.639 684.158 393.156 672.218 373.902 508.048C369.551 505.439 365.83 503.921 361.703 500.796C352.209 493.61 345.993 482.916 344.448 471.11C340.812 444.792 357.577 421.396 384.26 418.182C392.052 417.732 398.779 417.902 406.068 420.598C441.472 433.695 447.051 481.634 415.416 502.444C411.566 504.977 407.535 506.639 403.415 508.525C411.23 582.394 486.726 630.366 555.975 599.79C590.562 584.519 619.568 546.722 622.026 508.453ZM636.256 480.376C645.301 479.685 652.106 471.844 651.515 462.792C650.925 453.74 643.159 446.849 634.101 447.339C628.152 447.661 622.835 451.155 620.178 456.488C617.522 461.821 617.936 468.17 621.263 473.113C624.59 478.056 630.316 480.829 636.256 480.376ZM394.25 479.959C399.99 478.441 404.471 473.955 405.982 468.213C407.492 462.471 405.799 456.36 401.55 452.214C397.3 448.067 391.15 446.526 385.447 448.177C376.771 450.69 371.731 459.715 374.142 468.419C376.553 477.124 385.518 482.269 394.25 479.959Z"/><path fill="#0FA36C" d="M765.599 418.298C790.72 414.157 814.448 431.146 818.622 456.261C822.795 481.376 805.838 505.126 780.729 509.334C755.572 513.549 731.767 496.553 727.585 471.39C723.404 446.228 740.431 422.446 765.599 418.298ZM775.736 480.084C781.632 479.134 786.555 475.073 788.609 469.465C790.663 463.857 789.528 457.578 785.641 453.044C781.754 448.51 775.721 446.429 769.866 447.602C761.047 449.37 755.266 457.872 756.865 466.723C758.465 475.575 766.857 481.516 775.736 480.084Z"/><path fill="#0FA36C" d="M244.957 418.317C270.147 414.635 293.55 432.078 297.22 457.27C300.89 482.462 283.436 505.857 258.242 509.514C233.066 513.17 209.69 495.73 206.023 470.555C202.356 445.38 219.784 421.997 244.957 418.317ZM255.694 479.796C261.464 478.36 266.017 473.932 267.613 468.203C269.209 462.475 267.602 456.331 263.405 452.118C259.209 447.905 253.072 446.273 247.337 447.846C238.615 450.238 233.44 459.201 235.729 467.95C238.017 476.699 246.918 481.98 255.694 479.796Z"/></svg>