<?xml version="1.0" encoding="utf-8" ?><svg xmlns="http://www.w3.org/2000/svg" xmlns:xlink="http://www.w3.org/1999/xlink" width="1024" height="1024" viewBox="0 0 1024 1024"><path fill="#0CA076" d="M484.141 0L542.535 0C545.653 1.81378 571.976 4.26644 577.86 5.18707C627.262 12.9172 677.505 28.3064 722.551 50.1118C794.945 85.3287 857.04 138.609 902.847 204.811C908.002 212.342 912.577 220.115 917.575 227.727C924.866 238.831 929.524 252.34 936.435 263.396C942.19 272.601 949.185 281.544 955.145 290.869C971.919 316.813 985.781 344.527 996.479 373.51C1004.35 395.222 1011.62 419.069 1015.66 441.846C1017.11 450.118 1018.45 458.408 1019.68 466.714C1020.39 471.714 1021.15 479.641 1022.32 484.303C1023.03 483.245 1023.41 482.647 1024 481.525L1024 599.242C1022.35 599.436 1022.44 599.217 1021.18 600.037C1019.4 608.349 1018.66 617.382 1017.27 625.833C1003.3 710.641 962.414 784.274 902.802 845.371C896.461 851.741 889.918 857.908 883.183 863.861C880.266 866.41 872.707 872.468 870.664 874.743C863.303 882.945 856.971 890.366 849.208 898.302C828.182 920.042 804.681 939.244 779.187 955.517C715.48 996.669 641.186 1018.86 566.057 1022.8C563.351 1022.94 560.403 1023.01 557.886 1024L501.783 1024C495.648 1022.42 481.531 1022.25 474.147 1021.34C452.361 1018.95 431.187 1015.41 409.991 1009.86C389.761 1004.55 371.43 997.489 351.987 989.951C342.109 986.881 331.687 984.259 321.911 980.983C211.9 944.121 117.486 859.78 71.1528 753.102C69.6464 750.386 68.3429 745.718 66.7668 743.274C38.2274 699.034 20.0491 650.588 8.71455 599.342C7.20545 592.519 0.821099 546.135 0 544.976L0 476.042C1.99297 473.477 4.69148 430.24 5.59779 423.25C7.48954 408.204 10.0977 393.257 13.4133 378.46C25.4668 322.989 48.0444 270.343 79.9235 223.374C131.343 147.197 207.309 88.4618 293.274 56.3558C301.457 53.2998 313.514 45.4329 322.144 41.3555C348.835 28.991 376.629 19.1633 405.16 12.0024C422.775 7.5231 440.904 5.05885 458.896 2.72371C465.982 1.8039 477.11 1.4306 483.481 0.138073L484.141 0ZM620.784 684.33C597.066 696.865 578.2 707.086 551.78 713.325C539.528 716.218 526.465 722.449 513.538 724.222C461.306 734.744 409.65 731.011 359.003 714.86C343.217 709.826 332.165 704.979 317.227 698.04C245.21 662.207 187.005 600.711 161.25 523.881C132.252 437.204 138.431 342.608 178.456 260.439C226.448 163.985 310.319 101.279 410.544 67.2191C555.446 17.9769 712.995 58.5537 831.647 150.173C841.383 157.69 852.327 167.666 862.361 174.304C848.291 156.299 828.228 138.15 810.542 123.696C738.799 64.661 651.614 27.4658 559.35 16.5317C539.085 14.0372 524.642 13.8688 504.517 13.7466C387.456 15.9065 275.907 63.8688 193.808 147.34C120.651 222.515 79.9389 323.411 80.4367 428.306C81.7871 523.252 120.844 613.763 188.997 679.882C203.025 693.426 218.288 705.631 234.586 716.336C289.275 753.04 351.243 773.845 417.251 772.579C479.91 771.377 540.711 749.877 589.949 711.23C599.757 703.532 610.491 695.066 619.143 686.093C619.701 685.515 620.248 684.928 620.784 684.33ZM619.692 1001.67L619.22 1003.04C625.437 1002.76 640.421 998.834 646.82 997.269C694.782 985.543 744.934 963.679 785.242 935.101C807.711 919.357 828.424 901.245 847.024 881.077C852.534 875.057 858.653 867.051 863.809 860.596C911.478 800.91 943.192 727.144 955.109 651.527C970.359 554.764 954.697 449.374 908.846 362.441C901.335 348.198 889.613 329.942 880.095 316.766C822.577 237.143 734.515 182.444 637.886 165.205C619.802 161.979 589.335 159.424 570.855 160.524C505.08 164.351 441.555 184.401 387.505 222.128C323.633 266.712 278.7 333.856 269.084 411.821C268.179 419.161 268.03 426.392 266.802 433.781C266.284 436.719 266.18 438.873 267.041 441.747L267.719 438.519C278.989 365.629 317.27 309.705 376.139 266.688C441.614 219.755 522.903 200.417 602.498 212.839C694.613 226.528 777.363 276.658 832.151 351.963C896.293 440.168 919.743 552.397 902.668 659.506C883.832 775.791 819.955 879.979 724.864 949.512C698.279 968.73 666.824 984.611 636.044 995.772C633.142 996.825 621.695 1001.33 619.692 1001.67ZM317.653 626.835C309.965 615.923 301.621 604.939 294.996 593.366C217.224 457.513 251.498 300.713 379.695 210.885C457.175 156.842 553.016 135.946 645.961 152.833C696.289 161.703 742.636 182.213 785.705 209.18C810.716 224.891 833.68 243.647 854.07 265.016C910.425 323.136 943.629 390.211 961.891 468.688C984.076 565.3 976.172 666.388 939.241 758.378C930.955 779.408 920.867 795.466 912.287 814.941C995.994 720.08 1020.77 602.333 1007.61 478.984C996.852 378.231 948.061 280.523 871.986 213.32C804.483 153.965 720.522 116.548 631.252 106.037C610.895 103.584 588.84 101.814 568.361 103.289C467.496 108.184 366.756 153.334 298.681 228.483C253.908 277.296 226.686 339.642 221.32 405.661C220.567 415.998 220.101 425.156 220.64 435.584C224.089 506.173 255.727 572.424 308.459 619.477C311.383 622.109 314.371 624.657 317.653 626.835ZM280.813 452.463L281.073 451.767C283.263 445.826 284.535 439.643 286.466 433.715C289.619 424.037 293.616 413.014 298.063 403.874C312.841 373.505 335.747 346.124 362.953 326.1C370.849 320.289 379.018 315.574 386.878 310.17C402.473 299.448 416.234 291.549 433.439 283.495C497.051 253.356 570.03 249.727 636.318 273.404C814.639 338.051 877.302 548.994 815.575 717.466C792.125 781.47 761.638 827.126 714.265 875.845C659.407 931.131 585.738 971.702 509.764 989.516C499.467 991.93 489.814 993.734 479.465 995.341C472.582 996.409 450.071 997.487 444.686 999.529C456.568 1003.17 474.31 1003.76 486.758 1004.42C574.598 1009.05 666.095 980.422 734.677 925.209C801.925 871.071 851.675 794.898 876.532 712.516C907.253 611.954 899.204 498.682 849.617 405.496C807.096 325.587 737.573 264.542 650.606 237.748C618.703 227.919 574.141 220.25 540.699 222.702C537.936 222.927 535.169 223.143 532.408 223.391C457.047 230.146 384.983 264.311 335.639 322.124C309.619 352.393 291.797 388.831 283.877 427.953C282.373 435.66 280.777 444.659 280.813 452.463ZM729.537 511.191L729.527 507.803C729.408 506.449 729.448 506.531 728.8 505.342L728.489 506.296C728.38 507.524 728.292 509.035 728.107 510.228C727.329 514.646 726.54 519.09 725.892 523.51C720.062 563.308 705.145 601.797 680.982 634.093C674.212 643.142 666.679 651.176 659.266 659.677C655.045 664.643 650.743 671.147 646.325 676.43C628.661 697.283 608.382 715.771 585.989 731.436C519.472 778.041 437.037 796.006 357.159 781.306C267.179 765.297 185.753 710.791 133.691 636.091C76.9746 553.882 55.1751 452.535 73.0736 354.276C84.7769 286.67 113.365 223.116 156.186 169.507C162.005 162.209 167.597 155.654 173.719 148.721C179.528 142.141 193.032 129.71 197.302 123.053C112.041 183.846 43.9237 282.617 26.5747 386.759C8.44572 489.986 32.3948 596.173 93.0772 681.625C108.114 702.889 125.258 722.582 144.249 740.405C195.902 788.751 269.032 828.131 339.271 839.729C427.932 854.566 518.838 833.175 591.579 780.358C605.469 770.359 625.497 754.041 637.699 741.875C685.06 694.673 716.203 633.645 726.634 567.597C728.708 554.611 731.066 523.569 729.537 511.191ZM122.927 815.544L121.499 814.315L121.288 814.777L122.368 816.677C127.138 824.412 135.294 833.651 141.094 840.697C214.312 929.647 333.41 992.398 450.262 984.491C547.041 977.942 641.165 930.666 708.769 862.048C729.603 841.036 748.091 817.821 763.906 792.812C794.643 743.559 815.615 687.68 823.135 630.044C836.33 528.925 802.183 413.045 726.038 343.231C711.842 330.462 696.495 319.035 680.192 309.098C631.179 278.647 558.325 262.466 501.578 275.727C516.407 278.473 533.712 277.732 549.363 280.318C616.012 291.329 668.896 333.939 710.273 385.387C748.464 432.874 770.7 504.18 771.88 565.266C775.645 760.089 603.523 929.755 410.636 933.894C321.172 936.183 233.72 907.143 163.395 851.794C148.267 839.991 136.72 828.746 122.927 815.544ZM503.527 705.597C538.882 704.999 572.459 689.342 596.895 664.027C618.665 641.091 630.584 610.54 630.099 578.922C629.627 554.801 620.324 520.057 602.894 502.966C596.29 496.491 576.309 482.294 568.087 477.904C546.369 466.307 517.342 459.369 492.706 460.121C491.909 460.146 491.112 460.177 490.315 460.215C468.657 461.421 447.552 467.507 428.578 478.017C423.739 480.676 419.149 483.76 414.473 486.687C410.903 488.921 406.691 490.79 403.332 493.258C381.341 509.418 366.788 538.573 363.635 564.804C353.735 647.169 426.12 705.605 503.527 705.597ZM812.211 153.066C810.746 151.577 806.823 147.671 804.689 147.792C800.21 142.99 776.671 128.696 770.239 125.029C724.923 98.6745 675.704 79.6945 624.426 68.8004C601.982 63.9231 584.433 60.9337 561.219 60.1461C450.555 55.4418 342.605 95.1832 261.408 170.52C197.394 231.476 159.767 315.056 156.572 403.391C153.999 484.953 181.034 563.226 237.168 622.915C291.975 680.19 367.03 713.726 446.259 716.342C449.703 716.451 454.967 716.598 458.264 716.255L459.939 715.797C456.688 713.902 436.474 709.447 430.652 707.641C415.047 702.741 399.955 696.338 385.587 688.522C378.433 684.624 371.315 680.452 364.425 676.1C340.823 661.192 318.273 646.654 297.414 627.926C259.811 593.796 232.417 549.9 218.283 501.124C197.416 427.405 206.767 348.411 244.27 281.602C292.106 194.371 377.169 134.243 471.613 105.906C583.949 72.2017 701.833 92.0847 803.814 147.974C806.397 149.952 809.359 151.469 812.211 153.066ZM13.052 527.934C13.0927 529.412 13.029 530.949 13.4419 532.348C13.9866 566.505 26.0207 617.388 36.7904 649.576C70.2179 749.486 146.034 838.867 241.405 884.201C327.258 926.053 426.294 931.791 516.407 900.133C608.348 867.53 683.613 799.805 725.704 711.802C764.124 630.058 769.165 549.677 738.633 464.781L737.592 462.887L737.251 463.145C737.428 464.619 737.579 466.171 737.853 467.623C754.282 544.711 734.007 631.315 691.498 697.009C675.624 721.12 656.751 743.117 635.332 762.47C586.627 807.504 526.53 838.355 461.55 851.683C369.891 871.09 272.551 846.71 194.524 796.49C102.112 737.012 38.309 645.617 15.5014 537.802C15.0652 535.728 14.6726 533.646 14.3238 531.555L13.5671 527.97C13.663 526.395 13.6054 524.397 12.5072 523.238L12.052 524.318C12.2423 526.122 12.1392 526.33 13.052 527.934ZM495.589 290.699C485.715 291.698 476.005 292.641 466.281 294.657C418.947 304.471 367.483 331.377 336.595 369.211C312.528 398.396 297.006 433.671 291.746 471.132C290.237 481.768 289.196 493.221 290.333 503.973C290.816 508.671 291.533 513.343 292.481 517.97C293.284 509.051 294.084 501.249 295.678 492.44C311.893 402.817 397.937 339.251 485.874 331.666C548.319 327.344 609.904 348.139 656.948 389.431C678.127 408.123 698.029 435.737 708.35 461.939C711.896 470.942 714.138 481.227 717.563 489.465C717.762 480.233 715.884 465.251 714.103 456.043C706.715 416.942 688.015 380.868 660.32 352.293C623.06 313.652 564.335 291.08 511.013 290.26C507.096 290.2 499.116 290.228 495.589 290.699ZM604.527 676.462C635.568 658.357 661.329 624.281 670.525 589.504C679.965 554.958 674.947 518.059 656.625 487.289C632.266 445.612 591.02 419.639 545.039 407.7C525.551 402.799 505.421 400.948 485.365 402.215C443.162 405.039 388.337 430.465 360.999 462.379C335.146 492.56 324.295 529.177 328.099 568.382C330.695 603.217 353.729 641.993 379.885 664.299C356.014 629.617 343.249 599.438 351.032 555.716C360 505.334 394.27 476.885 438.784 457.671C465.246 446.249 505.753 442.698 533.617 450.808C567.597 459.443 606.216 478.739 624.606 509.739C641.833 538.78 647.887 580.027 639.593 612.966C633.094 638.774 622.319 656.818 604.527 676.462ZM315.998 580.524C315.214 571.98 314.11 563.047 313.825 554.451C312.597 520.867 325.361 484.235 346.556 458.137C378.145 419.241 433.245 393.429 482.776 388.768C503.793 386.791 528.438 390.007 548.942 394.405C561.192 398.052 572.85 401.462 584.575 406.759C659.046 440.399 706.437 516.327 681.854 598.504L678.723 608.916C689.901 595.658 703.112 565.773 705.523 549.073C713.775 491.916 688.823 433.464 645.059 396.901C610.357 368.108 567.876 350.286 523.019 345.701C514.529 344.829 503.417 343.658 494.846 344.703C481.609 346.065 468.328 347.582 455.388 350.83C374.67 371.087 305.691 438.781 305.935 525.69C305.983 542.865 308.711 564.863 315.998 580.524Z"/><path fill="#C8F1E3" d="M609.309 1004.28C612.577 1003.35 616.388 1002.14 619.692 1001.67L619.22 1003.04C615.804 1004.57 613.097 1004.34 609.66 1005.28L609.309 1004.28Z"/><path fill="#E7F7F5" d="M433.591 998.815C437.145 998.579 440.041 998.515 443.607 998.516C445.267 998.622 445.395 998.327 446.357 999.201L445.906 1000.02C444.452 1000.42 444.142 1000.25 442.655 1000.03C439.021 999.91 437.094 999.553 433.591 998.815Z"/><path fill="#82D3BB" d="M433.591 998.815C437.145 998.579 440.041 998.515 443.607 998.516L440.485 999.234L442.655 1000.03C439.021 999.91 437.094 999.553 433.591 998.815Z"/><path fill="#82D3BB" fill-opacity="0.98823529" d="M804.689 147.792C806.823 147.671 810.746 151.577 812.211 153.066C809.359 151.469 806.397 149.952 803.814 147.974L804.689 147.792Z"/><path fill="#E7F7F5" d="M200.639 120.034L200.734 120.567C199.666 122.432 197.591 124.128 195.974 125.644L195.815 124.073C196.963 122.27 198.826 121.274 200.639 120.034Z"/><path fill="#26A985" fill-opacity="0.98431373" d="M13.052 527.934C12.1392 526.33 12.2423 526.122 12.052 524.318L12.5072 523.238C13.6054 524.397 13.663 526.395 13.5671 527.97L13.052 527.934Z"/><path fill="#82D3BB" d="M459.939 715.797C461.15 715.313 462.282 715.683 463.397 716.13L463.425 716.696C461.725 717.29 460.068 716.67 458.264 716.255L459.939 715.797Z"/><path fill="#E7F7F5" fill-opacity="0.023529412" d="M728.489 506.296L729.527 507.803L729.537 511.191L728.107 510.228C728.292 509.035 728.38 507.524 728.489 506.296Z"/><path fill="#E7F7F5" fill-opacity="0.027450981" d="M737.853 467.623C737.579 466.171 737.428 464.619 737.251 463.145L737.592 462.887L738.633 464.781L737.853 467.623Z"/><path fill="#E7F7F5" fill-opacity="0.10588235" d="M13.052 527.934L13.5671 527.97L14.3238 531.555L13.4419 532.348C13.029 530.949 13.0927 529.412 13.052 527.934Z"/><path fill="#82D3BB" fill-opacity="0.52156866" d="M266.802 433.781L266.924 438.491L267.041 441.747C266.18 438.873 266.284 436.719 266.802 433.781Z"/><path fill="#82D3BB" d="M609.66 1005.28C608.312 1005.56 608.362 1005.51 606.983 1005.28C607.771 1004.22 607.417 1004.7 609.309 1004.28L609.66 1005.28Z"/><path fill="#E7F7F5" fill-opacity="0.047058824" d="M122.368 816.677L121.288 814.777L121.499 814.315L122.927 815.544L122.368 816.677Z"/><path fill="#C8F1E3" fill-opacity="0.27843139" d="M728.489 506.296L728.8 505.342C729.448 506.531 729.408 506.449 729.527 507.803L728.489 506.296Z"/><path fill="#C8F1E3" fill-opacity="0.035294119" d="M266.924 438.491L267.719 438.519L267.041 441.747L266.924 438.491Z"/></svg>