<?xml version="1.0" encoding="utf-8" ?><svg xmlns="http://www.w3.org/2000/svg" xmlns:xlink="http://www.w3.org/1999/xlink" width="1024" height="1024" viewBox="0 0 1024 1024"><path fill="#0AB07B" d="M600.029 269.244C658.528 267.546 713.86 309.759 727.724 366.763C732.067 384.621 731.525 408.22 731.646 426.751L731.535 503.437L731.526 561.494C731.516 577.621 731.845 597.797 729.151 613.606C725.882 632.783 717.103 655.182 706.872 671.686C682.851 710.526 644.381 738.231 599.929 748.701C555.978 758.426 509.966 750.552 471.749 726.767C434.914 703.259 408.858 666.151 399.253 623.523C382.08 548.837 417.699 472.914 485.331 437.838C491.12 434.835 497.789 431.421 504.167 430.038L504.91 429.881C515.039 439.057 524.235 452.011 527.999 465.271C522.204 468.029 515.382 470.152 508.904 473.278C487.74 483.593 469.949 499.717 457.608 519.767C457.213 520.368 456.824 520.974 456.444 521.585C446.586 537.416 441.65 553.637 439.101 571.775C427.12 657.028 510.721 725.681 592.673 704.487C698.135 677.213 720.156 540.678 633.738 478.102C627.58 473.643 620.494 470.496 613.983 466.565C611.38 461.473 608.759 449.088 606.658 442.755C603.224 432.402 599.338 425.438 595.09 415.713C619.135 419.55 651.948 437.733 669.772 454.088C675.768 459.59 681.317 465.354 687.307 470.898C685.925 443.16 688.624 408.736 685.008 382.192C679.224 339.74 630.242 304.941 587.976 314.081C562.09 319.678 547.91 330.673 532.937 352.27C517.121 345.128 511.882 340.752 494.194 335.085C497.692 327.443 507.012 314.204 512.676 308.407C537.308 283.201 565.387 270.784 600.029 269.244Z"/><path fill="#0AB07B" d="M434.752 346.694C434.859 346.682 434.966 346.669 435.073 346.657C475.394 345.043 513.902 358.239 544.523 384.388C605.669 436.603 613.341 531.994 561.209 593.217C539.866 618.283 507.533 638.998 473.992 641.646C465.574 632.731 459.57 613.051 459.378 600.595C465.5 599.472 472.412 599.013 478.255 597.073C568.305 567.176 580.388 448.478 497.25 402.009C489.155 397.287 476.835 392.954 467.805 391.027C439.343 384.931 409.624 390.618 385.423 406.791C361.77 422.339 343.93 447.582 338.355 475.467C332.035 506.614 339.643 538.968 359.182 564.036C362.06 567.71 365.191 571.193 368.375 574.6C371.141 577.56 374.848 579.941 376.949 583.407C377.186 586.047 377.43 589.272 377.415 591.908C377.338 605.528 380.837 618.462 382.591 631.715L382.662 632.279C368.881 627.101 353.756 617.063 342.574 607.644C313.485 582.98 295.456 547.715 292.498 509.692C289.197 469.605 302.128 429.871 328.389 399.405C356.073 366.791 392.628 350.162 434.752 346.694Z"/></svg>