<?xml version="1.0" encoding="utf-8" ?><svg xmlns="http://www.w3.org/2000/svg" xmlns:xlink="http://www.w3.org/1999/xlink" width="1024" height="1024" viewBox="0 0 1024 1024"><path fill="#0EAB70" d="M438.843 254.203C456.265 253.74 471.457 255.048 487.764 262.938C535.371 285.972 566.834 337.576 583.404 386.122C586.632 396.031 589.114 406.157 591.762 416.223C593.027 421.031 593.89 427.019 595.73 431.521L596.569 431.686C609.098 434.033 622.847 439.732 634.921 442.01C635.873 438.625 636.967 435.332 638.275 432.068C645.17 414.852 650.58 398.363 654.324 380.184C662.088 379.832 667.847 380.483 675.515 381.298C669.134 417.987 652.516 451.563 637.899 485.442C634.506 493.306 627.72 505.687 625.154 513.024C629.658 523.823 637.422 537.279 641.011 548.413C635.111 551.526 628.862 553.302 622.486 555.151C619.363 550.607 616.314 542.615 614.446 537.42C610.178 544.534 602.657 562.516 600.389 570.797C616.571 569.056 651.309 555.754 665.408 547.778C677.592 540.886 690.372 533.844 701.681 525.478C703.737 523.958 709.224 519.969 711.278 520.002C715.233 522.346 721.284 530.921 723.785 534.991C696.648 556.27 669.349 571.576 636.412 582.7C621.735 587.657 607.267 590.715 592.528 594.738C589.566 603.989 582.868 626.34 581.187 635.495C596.382 643.923 626.688 650.423 643.515 653.253C644.357 660.338 643.548 667.216 642.251 674.186C637.698 673.936 632.088 672.539 627.525 671.711C608.58 668.271 592.294 662.82 574.515 655.569C573.487 658.748 571.529 663.264 570.117 666.43C551.75 706.637 523.895 746.492 481.377 763.397C429.926 783.852 372.698 756.535 354.079 705C352.964 701.916 348.551 689.315 350.031 686.155C352.974 685.594 365.931 686.028 369.861 686.066C371.525 689.125 373.22 694.697 374.502 698.223C378.163 708.286 382.083 715.451 389.048 723.484C402.037 738.322 420.405 747.371 440.086 748.628C492.754 752.197 529.459 704.164 549.263 661.449C551.037 657.623 554.994 650.079 555.235 646.232C550.797 643.284 541.893 639.771 536.858 637.275C528.318 633.042 519.708 628.753 511.135 624.594C499.551 630.347 488.486 636.885 476.593 642.537C473.626 636.882 471.456 629.999 469.305 623.882C474.907 619.943 484.338 616.989 488.117 613.174C475.7 607.829 465.925 602.65 452.935 598.292C463.146 641.446 477.293 672.941 504.669 707.796C504.742 707.94 504.814 708.084 504.886 708.228C504.428 711.306 493.341 719.202 490.468 721.032C476.991 709.901 456.563 671.184 449.252 655.204C440.862 636.863 436.56 611.92 428.545 593.21C426.868 589.295 395.822 582.852 390.574 581.789C384.277 593.278 378.907 611.619 375.22 624.309C373.444 630.422 372.52 636.761 370.377 643.111C366.8 643.702 352.384 644.627 350.206 642.283C349.598 639.562 350.048 637.799 350.635 635.151C359.162 596.701 375.728 561.302 392.394 525.868C394.847 520.652 397.173 515.085 399.982 510.083C396.663 505.744 386.423 482.652 383.081 475.609C389.023 472.635 396.275 470.053 402.534 467.69C405.527 473.34 407.235 480.087 410.852 486.583C414.297 478.17 422.984 459.484 424.974 451.861C397.874 456.882 360.637 473.436 336.91 488.126C329.427 492.759 321.437 498.934 314.198 504.124C309.922 500.744 304.059 493.116 300.862 488.76C305.493 483.947 316.989 476.514 322.868 472.5C355.368 450.312 393.715 437.545 431.873 428.007C434.684 422.698 441.312 395.498 443.703 387.527C434.646 382.082 411.138 376.287 400.434 373.597C394.491 372.103 388.264 371.751 381.812 369.477C381.453 366.283 380.657 351.409 382.524 349.389C385.908 348.583 391.747 350.256 395.337 350.955C415.177 354.819 432.203 360.173 450.877 367.65C458.004 348.313 475.241 316.705 489.084 301.391C494.348 305.193 499.531 309.879 504.274 314.315C495.446 326.55 471.951 363.022 469.453 377.263C484.758 382.814 499.365 391.657 514.315 398.094C517.488 395.939 524.822 392.409 528.454 390.573C535.346 387.092 542.83 383.086 549.894 380.094C552.774 386.462 554.91 392.609 556.957 399.26C552.592 401.784 540.797 407.871 536.445 409.43C542.868 412.903 565.872 422.519 572.799 424.425C571.698 415.72 565.283 397.996 562.342 389.491C551.859 359.179 533.953 327.829 510.777 305.463C501.479 295.911 492.35 288.543 480.23 282.895C440.728 264.486 396.548 281.206 378.759 320.957C362.084 358.218 373.303 394.735 386.853 430.635C382.015 432.617 372.964 435.582 367.963 436.905C365.574 432.593 364.095 427.369 362.366 422.748C345.609 377.99 341.11 328.427 373.729 288.809C389.922 269.018 413.379 256.552 438.843 254.203ZM423.131 510.289C428.432 526.194 437.13 541.695 442.216 557.821C442.995 560.289 445.994 573.687 448.142 574.581C454.571 577.257 461.583 579.385 468.168 581.762C480.634 586.26 492.351 592.172 504.236 597.981C506.627 599.15 508.327 600.336 510.962 600.88L511.71 600.586C532.043 590.394 553.325 582.218 575.252 576.176C581.963 558.583 592.94 530.364 602.147 514.137C592.768 495.396 583.79 469.192 578.903 448.803C574.025 446.05 564.378 443.473 558.654 441.376C549.336 437.864 540.125 434.075 531.032 430.014C527.679 428.521 515.805 422.079 513.333 421.991C489.159 432.643 474.442 439.153 448.832 446.464C444.331 461.744 437.217 477.676 431.133 492.477C429.112 497.396 424.579 505.863 423.131 510.289ZM535.108 613.339C538.693 615.626 540.868 616.684 544.751 618.504C550.51 621.385 556.312 624.18 562.155 626.887C563.32 621.359 568.27 604.004 568.452 601.152L568.035 600.545L567.489 600.507C557.349 604.335 544.506 608.474 535.108 613.339ZM410.852 536.427C407.698 541.665 400.369 557.138 398.24 562.859C403.741 564.443 408.047 564.181 413.881 566.025C416.92 566.798 420.087 567.678 423.161 568.23C421.867 563.787 413.009 538.775 410.852 536.427ZM462.764 396.533C460.947 405.968 458.003 413.403 456.137 422.072C463.368 420.674 470.529 417.655 477.443 415.025C481.738 413.269 486.067 411.629 490.095 409.322C482.946 405.815 469.949 399.274 462.764 396.533ZM618.489 479.126C621.238 473.228 624.455 466.703 626.584 460.656C617.546 458.717 609.894 456.583 601.017 454.006C603.451 462.307 609.222 481.453 613.898 488.2C615.936 484.749 616.875 482.809 618.489 479.126Z"/><path fill="#0EAB70" d="M334.444 349.652C336.086 349.42 336.077 349.346 337.678 349.649C338.519 352.55 337.956 366.334 338.542 371.03C322.112 375.627 312.593 379.703 299.884 391.685C285.75 405.01 276.465 427.158 276.456 446.567C276.436 488.75 307.325 518.69 341.812 537.817C345.987 540.133 366.451 550.927 368.236 552.766C368.587 555.694 363.683 567.476 362.463 571.576C359.936 570.552 357.416 569.512 354.902 568.456C347.107 564.694 339.408 560.735 331.813 556.583C300.109 538.944 268.737 510.464 258.696 474.537C251.536 449.349 254.683 422.348 267.443 399.481C282.83 372.207 305.107 357.952 334.444 349.652Z"/><path fill="#0EAB70" d="M663.283 452.603C668.387 453.886 679.044 459.216 684.034 461.8C718.04 479.605 751.939 507.645 764.218 545.254C781.761 598.985 752.004 655.006 698.314 671.565C693.151 672.914 691.65 673.453 686.298 673.836C686.107 667.148 686.177 659.916 686.091 653.181C687.882 652.393 690.608 651.521 692.503 650.966C716.558 643.916 734.175 626.919 743.302 603.294C750.521 584.47 749.877 563.536 741.513 545.192C726.417 511.221 689.361 484.763 655.338 471.586C658.563 464.731 660.647 459.642 663.283 452.603Z"/><path fill="#0EAB70" d="M657.526 587.019C659.351 588.174 660.724 593.217 661.437 595.326C674.799 634.884 684.037 677.631 663.366 716.736C635.416 769.607 579.301 783.508 527.684 756.787C525.167 755.644 523.623 754.553 521.348 753.045C522.991 751.294 535.16 738.789 536.758 739.361C558.875 747.271 576.265 752.932 599.735 745.31C646.838 730.012 661.42 679.897 651.263 635.333C647.814 620.204 643.234 608.008 638.643 593.412C645.566 591.354 650.844 589.653 657.526 587.019Z"/><path fill="#0EAB70" d="M269.335 521.162C272.162 522.455 282.257 533.403 284.386 536.435C283.454 538.658 282.535 540.885 281.627 543.118C273.163 563.985 273.237 585.617 282.056 606.491C294.803 636.664 326.042 654.581 358.316 654.564C381.829 654.552 409.784 647.298 431.635 637.765C432.56 641.965 436.715 652.614 438.357 657.295C436.116 658.567 434.482 659.205 432.127 660.163C389.819 676.39 340.174 684.767 299.89 658.649C277.449 644.048 261.691 621.167 256.051 594.995C251.096 571.13 255.866 541.594 269.335 521.162Z"/><path fill="#0EAB70" d="M653.835 348.207C673.092 345.9 701.669 352.551 718.625 361.897C741.635 374.617 758.665 395.939 765.984 421.192C774.451 451.132 769.814 476.882 754.744 503.629C750.73 498.824 744.561 492.425 741.531 487.3C746.14 471.991 749.203 466.165 749.476 449.026C748.688 438.803 747.875 431.453 744.099 421.723C736.242 401.477 721.276 385.8 701.376 377.046C672.751 364.454 639.864 368.6 610.858 377.649C604.653 379.585 598.608 382.184 592.551 384.477C590.288 377.878 587.735 371.382 584.899 365.009C601.4 357.079 635.921 349.793 653.835 348.207Z"/><path fill="#0EAB70" d="M570.625 254.191C623.988 251.902 665.061 284.865 675.79 337.052C668.193 336.881 661.842 336.464 654.077 336.502C651.087 326.064 648.837 319.781 642.659 310.732C629.312 289.823 604.379 276.076 579.659 275.185C564.117 274.625 550.919 279.887 537.005 285.9C531.649 281.625 528.295 276.61 521.46 271.419C533.846 261.879 555.118 255.71 570.625 254.191Z"/></svg>