<?xml version="1.0" encoding="utf-8" ?><svg xmlns="http://www.w3.org/2000/svg" xmlns:xlink="http://www.w3.org/1999/xlink" width="1024" height="1024" viewBox="0 0 1024 1024"><path fill="#16A37C" d="M591.945 264.62C601.847 263.682 605.635 267.07 608.229 276.299C606.713 283.722 596.495 307.062 593.293 315.111L552.115 418.864L541.218 445.943C539.418 450.475 536.877 456.295 535.781 460.922C540.534 461.05 545.938 460.722 550.877 460.777C573.14 461.054 595.405 461.142 617.669 461.041C629.698 461.015 641.984 460.486 653.971 461.568C661.527 461.773 667.163 474.089 662.492 479.686C638.953 507.901 612.856 535.536 588.272 562.771L468.099 695.182C456.045 708.248 444.221 721.666 432.382 734.931C428.499 739.282 425.218 743.7 420.407 747.085C417.196 748.248 414.673 748.014 411.326 747.939C404.718 744.147 401.195 739.674 403.626 731.832C407.018 720.89 412.392 709.861 416.577 699.116C430.258 664.433 444.185 629.847 458.356 595.362L470.373 565.971C472.402 560.998 475.732 553.514 476.979 548.538C467.358 548.016 454.364 548.338 444.495 548.293L393.208 547.962C382.543 547.975 371.273 548.537 361.18 547.444C353.946 546.661 349.226 535.332 352.072 530.973C356.155 524.717 366.833 513.531 371.744 508.034L402.985 472.695C445.342 424.026 488.366 375.94 532.043 328.451L571.96 284.205C576.802 278.847 581.516 273.269 586.372 267.916C587.69 266.464 590.129 265.444 591.945 264.62ZM391.066 523.295C399.862 523.819 410.809 523.509 419.757 523.5L470.236 523.464C479.025 523.459 488.634 523.214 497.526 523.753C502.956 524.006 508.735 532.383 507.739 537.314C506.702 542.449 503.448 549.272 501.323 554.254C490.727 579.093 481.071 604.286 471.177 629.406C465.365 644.164 458.767 658.884 453.714 673.931L456.922 670.911C473.57 651.616 490.951 633.551 507.921 614.701L624.618 486.09C615.447 485.399 602.91 485.838 593.511 485.858L544.186 485.739C534.519 485.74 524.693 486.044 515.168 485.23C508.644 484.672 503.666 478.044 504.905 471.963C507.115 461.114 513.056 449.111 517.314 438.859L537.419 391.695C540.402 384.658 543.077 377.538 546.148 370.508L557.717 343.789C559.346 340.097 561.787 335.823 563.169 332.284L562.817 331.976C554.774 340.269 548.057 348.465 540.317 356.836C509.993 389.71 480.034 422.919 450.445 456.457C433.747 475.062 417.018 493.762 400.402 512.451C397.297 515.943 393.646 519.432 391.066 523.295Z"/><path fill="#FDFDFD" fill-opacity="0.0078431377" d="M562.817 331.976L563.169 332.284C561.787 335.823 559.346 340.097 557.717 343.789L546.148 370.508C543.077 377.538 540.402 384.658 537.419 391.695L517.314 438.859C513.056 449.111 507.115 461.114 504.905 471.963C503.666 478.044 508.644 484.672 515.168 485.23C524.693 486.044 534.519 485.74 544.186 485.739L593.511 485.858C602.91 485.838 615.447 485.399 624.618 486.09L507.921 614.701C490.951 633.551 473.57 651.616 456.922 670.911L453.714 673.931C458.767 658.884 465.365 644.164 471.177 629.406C481.071 604.286 490.727 579.093 501.323 554.254C503.448 549.272 506.702 542.449 507.739 537.314C508.735 532.383 502.956 524.006 497.526 523.753C488.634 523.214 479.025 523.459 470.236 523.464L419.757 523.5C410.809 523.509 399.862 523.819 391.066 523.295C393.646 519.432 397.297 515.943 400.402 512.451C417.018 493.762 433.747 475.062 450.445 456.457C480.034 422.919 509.993 389.71 540.317 356.836C548.057 348.465 554.774 340.269 562.817 331.976Z"/><path fill="#16A37C" d="M361.351 360.246L418.825 360.163C428.632 360.166 438.577 359.936 448.359 360.44C455.995 360.834 458.189 366.313 459.586 372.702C458.218 378.749 454.896 383.921 448.35 384.497C440.033 385.229 431.17 384.965 422.812 385.03C402.787 385.183 382.761 385.215 362.736 385.126C345.991 385.156 333.978 385.898 321.576 398.343C309.417 410.543 309.975 424.122 309.958 439.725L309.957 470.213L309.94 579.768C310.008 593.812 313.456 603.008 323.603 613.328C336.64 626.587 351.449 625.64 368.562 625.557C379.067 625.631 389.634 625.425 400.148 625.457C408.982 625.304 416.973 628.526 416.528 638.58C416.097 648.341 410.516 650.983 401.552 651.011C386.535 651.057 371.387 651.149 356.37 650.772C350.231 650.619 343.863 650.502 337.922 648.949C325.621 645.688 314.573 639.607 305.419 630.729C290.967 617.097 284.34 599.854 284.588 580.16C284.74 568.124 285.199 556.157 285.288 544.154L285.213 477.729C285.282 468.066 285.24 458.403 285.086 448.741C284.938 437.075 284.321 424.221 286.815 412.917C289.621 400.633 295.82 389.384 304.706 380.45C321.431 363.403 338.817 360.444 361.351 360.246Z"/><path fill="#16A37C" d="M612.315 360.245C625.21 360.007 638.666 360.197 651.6 360.127C662.069 360.07 677.257 359.681 687.103 361.671C695.634 363.329 703.742 366.692 710.941 371.56C725.682 381.546 737.237 397.752 740.487 415.347C742.376 425.574 741.984 435.636 741.963 445.974L741.898 481.517C741.914 490.33 741.981 499.323 742.046 508.129C742.139 520.504 743.387 527.588 728.623 529.894C717.395 530.323 717.429 520.919 717.052 512.854C715.622 482.267 718.923 449.055 715.605 418.91C713.895 403.376 697.106 387.642 681.962 385.884C673.431 384.894 664.576 385.032 655.667 385.111C644.496 385.261 633.325 385.328 622.153 385.312C617.375 385.279 608.416 385.761 604.982 382.789C595.177 374.305 599.692 361.661 612.315 360.245Z"/><path fill="#16A37C" d="M727.255 564.57C727.621 564.537 727.986 564.511 728.353 564.491C747.84 563.478 741.051 596.339 737.047 606.914C729.425 627.786 708.386 644.508 686.825 649.112C674.156 651.817 654.579 650.629 641.102 650.652L570.899 650.968C559.961 650.372 554.034 644.344 558.065 633.273C562.006 622.452 581.471 625.548 591.115 625.599L643.929 625.576C655.187 625.558 665.944 625.699 677.289 624.925C697.076 623.796 713.808 607.018 716.559 587.722C718.137 576.652 713.403 569.557 727.255 564.57Z"/></svg>