<?xml version="1.0" encoding="utf-8" ?><svg xmlns="http://www.w3.org/2000/svg" xmlns:xlink="http://www.w3.org/1999/xlink" width="1024" height="1024" viewBox="0 0 1024 1024"><path fill="#13AE7E" d="M391.133 231.253C399.284 231.191 429.221 229.327 434.838 233.569C435.431 234.56 435.833 235.528 435.818 236.788C435.595 255.879 436.567 275.621 435.535 294.625C435.307 298.812 420.933 298.109 417.393 298.26C414.482 298.38 411.584 298.712 408.721 299.252C391.992 302.442 380.114 313.811 376.013 330.275C373.289 341.212 374.421 351.85 374.466 362.988C374.704 385.044 374.6 407.102 374.155 429.155C373.975 439.099 374.62 450.14 372.799 459.759C369.711 476.072 362.103 491.678 349.223 502.457C344.722 506.225 340.056 508.991 335.189 512.245C336.925 513.759 339.648 515.42 341.635 516.768C348.151 521.185 352.806 525.018 357.739 531.263C364.694 540.082 369.642 550.312 372.235 561.239C375.074 573.383 374.528 592.03 374.53 604.824C374.667 621.333 374.548 637.844 374.173 654.35C373.424 686.251 372.933 719.389 414.081 725.289C420.247 726.173 428.641 724.666 434.097 727.326C436.375 728.436 435.902 738.528 435.972 740.974C435.843 755.68 436.269 770.431 435.692 785.113C435.615 787.062 434.768 789.908 433.795 791.587C429.032 793.981 385.864 792.544 377.506 792.219C365.344 791.051 353.539 787.465 342.783 781.672C317.35 768.187 300.219 743.011 297.007 714.404C295.617 703.038 296.097 684.48 296.098 672.329L296.206 612.496C296.265 602.101 297.298 584.094 294.333 575.119C287.945 555.778 271.31 543.102 250.847 542.527C247.031 541.968 237.555 543.486 234.397 541.492C230.702 539.16 232.014 524.469 231.898 520.332C231.572 508.699 231.636 497.346 231.906 485.761C231.933 484.607 232.3 481.849 233.162 480.976C235.747 478.456 243.349 479.002 246.97 478.96C253.304 478.886 257.724 478.827 263.907 477.415C280.9 473.534 293.235 458.819 295.614 441.844C296.76 433.671 296.176 417.784 296.162 408.669L296.192 351.805C296.237 339.696 296.054 327.25 296.628 315.29C298.18 282.942 316.462 254.803 345.358 240.228C360.957 232.36 374.206 231.332 391.133 231.253ZM243.5 490.613L243.477 515.76C243.451 520.198 243.159 526.789 243.587 531.055C264.053 531.607 276.946 533.413 292.133 549.391C299.115 556.8 303.989 565.941 306.25 575.867C308.488 585.771 307.845 599.754 307.843 610.276L307.84 677.504C307.837 688.514 307.134 701.523 308.182 712.397C310.17 732.999 320.724 751.984 337.027 764.601C358.754 781.415 379.136 781.663 405.125 781.511C411.393 781.545 417.998 781.671 424.238 781.527C424.17 767.32 424.476 751.634 423.991 737.594C404.395 736.117 390.858 734.53 376.796 718.351C372.731 713.701 369.51 708.378 367.279 702.62C362.197 689.6 363.446 676.001 363.501 662.125L363.647 618.448C363.837 600.591 365.222 580.547 361.09 563.224C355.679 540.542 338.43 523.192 316.156 516.861C312.644 515.862 310.146 512.931 312.251 509.309C316.466 506.333 324.075 504.93 329.063 502.336C348.381 492.287 359.106 476.008 362.468 454.692C364.164 443.934 363.51 435.36 363.779 424.692C364.352 402.158 363.336 379.613 363.922 357.083C364.228 345.325 362.526 335.423 365.989 323.856C374.309 296.06 397.536 286.813 424.063 287.013C424.175 276.296 425.014 252.551 424.054 242.548L395.97 242.402C392.718 242.393 384.41 242.261 381.328 242.692C359.026 245.003 339.492 252.688 325.031 270.655C317.714 279.742 312.55 290.368 309.928 301.736C306.792 315.793 307.912 335.019 307.929 349.85L307.908 412.324C307.892 425.254 308.753 440.336 304.739 452.449C297.77 473.482 280.818 487.531 258.753 490.036C253.727 490.607 248.545 490.521 243.5 490.613Z"/><path fill="#13AE7E" d="M592.16 231.624C593.088 231.552 593.877 231.503 594.811 231.487C605.368 231.354 615.925 231.278 626.482 231.26C657.841 231.188 679.287 233.889 703.322 257.264C732.098 285.249 729.713 318.966 729.473 355.629C729.308 380.848 729.467 406.392 729.432 431.629C729.376 443.096 731.496 452.358 738.17 461.53C752.258 484.9 787.214 476.101 792.397 481.154C795.741 491.253 792.422 526.86 793.242 538.854C793.546 543.313 770.592 542.853 766.497 543.491C761.346 544.264 756.36 545.89 751.745 548.305C742.168 553.3 734.954 561.878 731.676 572.17C728.524 582.137 729.399 598.415 729.418 609.347L729.504 664.36C729.535 686.726 731.276 710.656 724.558 731.848C717.282 754.202 701.375 772.721 680.375 783.288C655.665 794.436 637.275 792.725 611.024 792.598C606.348 792.576 594.475 793.267 590.882 791.312C588.877 787.146 588.873 734.842 589.839 728.546C592.498 724.815 607.607 726.337 614.098 725.385C619.233 724.661 624.202 723.048 628.783 720.617C653.053 707.805 651.532 683.425 651.484 659.892L651.354 612.894C651.323 600.777 651.14 588.591 651.616 576.482C652.737 548.022 666.34 525.767 691.649 512.741C678.826 504.951 671.893 500.15 663.335 487.103C649.733 466.365 651.112 446.249 651.054 422.457L651 370.205C651.016 359.823 651.746 341.64 649.729 332.24C648.352 325.587 645.325 319.387 640.927 314.208C632.696 304.47 621.041 299.003 608.248 298.509C604.826 298.377 593.821 299.302 590.956 296.664C590.303 296.062 589.58 291.525 589.564 290.261C589.32 271.728 588.952 253.044 589.629 234.522C589.681 233.083 591.137 232.361 592.16 231.624ZM601.033 737.527C600.371 747.672 600.027 770.972 600.663 781.539C619.53 781.553 646.367 782.93 663.671 777.766C697.644 765.307 717.312 738.562 717.883 702.335C718.046 692.007 718.082 681.722 718.08 671.39L718.044 608.751C718.019 596.294 717.147 580.418 720.88 568.762C725.855 553.253 737.61 540.847 752.828 535.044C763.778 530.897 770.547 531.154 781.815 530.97C781.846 518.8 782.105 503.05 781.52 491.085C778.244 490.76 775.067 490.571 771.772 490.457C754.892 489.871 741.579 483.242 730.794 470.18C725.099 463.262 721.17 455.065 719.345 446.293C717.395 436.99 717.902 422.509 717.925 412.646L718.074 355.485C718.092 337.111 719.395 314.98 714.536 297.604C706.325 268.24 676.777 244.5 646.365 242.708C632.526 241.893 614.556 241.895 600.58 242.489C600.325 257.337 600.394 272.189 600.787 287.034C609.095 286.963 617.097 287.031 624.984 289.984C649.005 298.98 662.046 317.738 662.048 343.025L661.979 406.522C661.978 424.232 660.611 446.474 664.914 463.015C667.534 473.444 672.949 482.96 680.575 490.54C690.275 500.225 700.29 503.466 712.865 507.855C715.8 508.879 717.325 513.223 714.718 515.254C710.235 518.746 703.834 519.785 698.705 522.143C676.737 530.961 664.472 552.629 662.511 575.542C661.668 585.392 661.994 597.003 661.988 607.18L661.987 662.702C662.012 673.136 662.867 687.439 660.388 697.26C657.834 707.384 650.946 718.534 642.742 725.099C628.515 736.483 617.892 736.373 601.033 737.527Z"/><path fill="#13AE7E" d="M540.286 334.66C543.656 334.466 547.184 334.527 550.577 334.524C573.747 334.509 596.949 334.21 620.113 334.731C627.007 334.886 626.554 340.954 624.801 345.807C616.968 367.489 608.904 389.088 600.828 410.683L564.288 509.018L521.948 622.776C514.531 642.944 507.034 663.07 499.867 683.328C498.186 688.082 496.803 689.87 491.625 689.984C476.81 689.953 461.994 689.998 447.179 690.12C440.387 690.199 409.625 691.484 406.318 687.601C404.913 681.633 409.097 674.903 411.113 669.218C418.67 648.218 426.548 627.336 434.746 606.578L467.556 519.957L512.798 399.324C520.315 379.226 527.934 359.062 535.543 338.991C536.519 336.419 537.85 335.674 540.286 334.66ZM419.555 679.058C432.778 678.805 446.005 678.723 459.231 678.811C468.037 678.864 479.065 679.227 487.77 678.813C489.086 678.298 489.446 678.492 489.937 676.762C491.019 672.949 492.323 669.516 493.749 665.844C506.388 633.085 518.598 600.162 530.376 567.083L577.618 440.175C585.542 418.268 594.372 396.439 602.16 374.488C604.702 367.325 610.584 352.895 612.223 346.048C591.203 345.968 565.54 346.815 545.027 346.082C541.779 355.623 537.309 366.259 533.655 375.801L517.513 419.158L455.29 584.681L434.176 640.449C429.704 652.029 423.194 667.522 419.555 679.058Z"/></svg>