<?xml version="1.0" encoding="utf-8" ?><svg xmlns="http://www.w3.org/2000/svg" xmlns:xlink="http://www.w3.org/1999/xlink" width="1024" height="1024" viewBox="0 0 1024 1024"><path fill="#0EB382" d="M510.796 184.61C519.058 184.227 529.944 194.728 536.953 199.443C549.212 207.691 561.451 215.422 574.953 221.541C593.004 229.93 612.431 234.962 632.285 236.392C658.395 238.308 677.177 234.203 699.953 222.374C708.273 218.052 714.885 217.905 721.511 225.413C731.247 236.444 740.451 248.188 749.965 259.55L778.618 293.679C782.812 298.665 789.472 305.578 792.71 311.041C794.377 313.856 794.161 321.692 792.131 324.627C787.558 331.237 780.198 337.035 774.653 343.157C753.957 366.007 739.599 392.589 736.799 423.656C734.921 444.494 740.783 460.436 746.902 479.818C764.668 536.094 771.626 582.114 748.154 638.551C731.703 678.106 706.827 706.727 672.518 732.606C661.211 741.134 647.379 748.69 635.362 756.455C616.356 768.874 597.556 781.606 578.97 794.646C564.168 805.118 549.395 815.605 534.689 826.212C528.357 830.779 522.066 838.098 515.319 840.939C513.335 841.091 509.326 840.99 507.766 839.913C500.534 834.921 493.652 828.719 486.46 823.535C466.102 808.91 445.576 794.52 424.886 780.369C394.038 759.277 357.722 738.567 329.987 714.283C278.198 668.524 253.564 599.357 264.768 531.162C271.36 490.212 292.837 454.311 286.162 412.933C282.968 388.409 268.1 361.318 250.623 343.497C224.191 316.545 225.423 318.163 249.169 290.615C257.341 281.073 265.406 271.44 273.361 261.717C279.361 254.46 303.669 223.989 309.158 220.946C319.558 215.182 333.924 225.951 343.438 229.896C349.496 232.408 355.947 234.129 362.4 235.256C381.482 238.589 401.103 237.029 419.778 232.195C439.486 227.094 458.348 217.708 475.368 206.594C484.403 200.695 501.216 187.183 510.796 184.61ZM317.293 237.44C312.717 242.209 308.712 247.226 304.454 252.258C286.155 273.878 268.601 296.196 249.861 317.428C282.356 347.962 303.708 381.133 305.843 427.382C306.722 454.788 295.485 481.454 288.358 507.566C273.317 562.669 277.112 612.544 308.237 660.973C337.803 706.978 379.293 727.872 423.447 757.541C442.812 770.555 462.027 783.791 481.087 797.248C491.837 804.938 502.42 813.101 513.066 820.7C542.195 798.289 572.097 776.9 602.715 756.571C627.145 740.241 654.654 725.601 676.975 706.66C710.209 677.875 736.5 634.116 743.848 590.71C750.077 553.909 739.598 515.961 728.951 480.916C718.395 446.169 712.839 425.209 726.073 388.717C733.227 369.469 743.659 351.605 756.907 335.915C762.075 329.913 768.973 323.235 774.637 317.576C770.539 311.637 764.38 304.667 759.685 299.031C750.895 288.408 742.04 277.84 733.121 267.325C727.603 260.699 722.252 253.914 716.784 247.261C714.494 244.475 710.798 239.472 708.4 237.07C702.521 240.488 696.446 244.126 690.026 246.454C661.189 256.909 626.594 256.574 597.138 248.807C573.326 242.529 552.579 232.047 532.593 217.806C525.909 213.043 519.644 207.761 513.088 203.071C507.441 206.4 500.854 211.194 495.263 214.912C486.299 220.818 477.156 226.448 467.848 231.794C431.34 252.498 389.644 260.084 348.246 250.58C338.571 248.359 326.065 242.489 317.293 237.44Z"/><path fill="#0EB382" d="M502.797 370.701C551.195 365.75 599.792 393.429 626.692 432.607C699.267 538.305 622.548 686.168 529.546 751.435C522.226 756.572 508.136 767.626 499.473 767.342C494.289 767.171 490.86 757.567 494.541 753.197C556.515 716.14 606.302 656.286 628.531 587.054C633.452 572.369 636.508 557.124 637.626 541.678C640.84 501.879 630.418 462.837 604.011 432.065C513.264 326.317 360.813 426.579 386.589 549.962C388.317 558.232 401.25 579.954 380.04 576.12C370.795 567.912 367.442 546.67 366.581 534.872C363.357 490.716 378.622 452.409 406.886 419.406C430.939 390.849 465.549 373.274 502.797 370.701Z"/><path fill="#0EB382" d="M508.608 461.221C555.086 460.38 571.222 501.982 563.171 542.269C548.765 614.36 498.679 670.144 433.363 701.611C426.967 704.692 415.566 712.9 409.793 705.761C405.755 700.85 406.361 696.019 411.768 692.225C429.287 682.219 447.965 673.693 464.543 662.057C507.273 632.033 536.681 586.526 546.961 535.377C552.026 510.178 543.049 483.374 515.139 478.641C508.147 478.053 501.143 479.641 495.088 483.188C484.497 489.331 477.123 499.8 474.907 511.842C473.514 519.746 473.39 526.302 471.364 534.443C458.147 587.551 374.506 662.638 333.83 590.653C324.756 574.594 316.819 535.333 322.218 517.006C328.013 511.47 333.153 511.951 338.06 518.182C338.609 525.167 338.296 532.419 338.519 539.714C339.071 557.803 345.639 581.622 358.919 594.534C363.716 599.088 374.954 603.661 381.516 602.526C414.09 596.89 449.007 558.242 455.553 526.869C459.425 508.31 456.523 495.774 471.003 480.75C482.551 468.768 492.206 462.085 508.608 461.221Z"/><path fill="#0EB382" d="M503.043 324.701C507.743 324.189 516.902 324.372 521.568 324.648C571.036 327.458 617.345 349.861 650.253 386.902C663.421 401.86 688.13 435.657 689.995 457.787C690.507 463.874 683.96 465.09 678.472 464.297C673.578 460.107 671.789 453.756 669.258 447.964C666.833 442.316 664.094 436.808 661.053 431.466C625.757 369.453 560.637 335.076 489.569 343.826C482.492 344.882 475.492 346.395 468.612 348.358C413.139 363.878 362.253 413.849 346.9 469.51C344.861 474.464 343.823 491.484 336.04 491.469C320.335 491.438 328.254 472.012 329.974 465.739C337.854 436.994 353.394 411.351 372.747 389.005C398.172 359.647 434.872 337.665 472.668 328.742C482.77 326.439 492.766 325.561 503.043 324.701Z"/><path fill="#0EB382" d="M507.56 277.21C508.122 277.177 508.685 277.159 509.249 277.154C571.549 276.529 630.481 302.659 675.518 345.318C678.716 348.446 688.088 356.84 687.004 361.623C682.466 381.655 663.281 358.502 656.789 352.844C650.131 347.046 643.211 341.556 636.051 336.39C607.584 315.93 574.687 302.483 540.038 297.146C533.147 296.093 525.906 295.729 518.927 295.055C459.205 293.612 400.821 318.632 359.257 361.215C357.576 362.938 350.372 369.707 348.358 369.568C336.879 368.777 335.273 359.845 342.739 351.922C385.696 306.283 444.925 279.436 507.56 277.21Z"/><path fill="#0EB382" d="M505.272 416.701C541.476 413.418 572.48 430.614 591.805 460.944C606.537 484.067 611.935 514.301 609.143 541.364C608.376 548.802 607.94 566.083 596.605 563.769C593.428 563.088 591.668 560.587 590.062 557.951C590.131 552.265 591.662 545.423 592.266 539.559C596.47 498.745 579.914 455.934 540.126 438.772C529.075 434.078 516.057 432.539 504.184 434.214C468.115 439.304 437.553 468.661 430.404 504.244C429.107 510.702 429.776 530.593 426.8 534.244C425.323 536.056 423.19 537.141 420.871 537.365C418.659 537.578 416.225 536.942 414.538 535.454C412.444 533.607 411.873 530.706 411.65 528.057C411.36 524.603 411.765 521.023 411.915 517.566C412.837 493.679 421.708 470.783 437.12 452.51C454.652 431.584 478.076 419.07 505.272 416.701Z"/><path fill="#0EB382" d="M687.46 483.609C700.01 482.824 699.787 491.076 700.816 501.287C703.503 527.917 702.017 555.741 696.314 581.907C688.367 616.854 673.386 649.816 652.283 678.784C648.376 684.197 643.23 691.965 637.699 695.51C629.094 697.283 623.746 689.639 627.382 682.878C630.496 677.088 636.783 670.015 640.774 664.244C649.635 651.636 657.32 638.242 663.733 624.229C679.176 589.759 686.188 557.563 684.578 519.72C684.153 509.729 682.777 499.455 682.447 489.537C682.369 487.205 685.658 484.822 687.46 483.609Z"/><path fill="#0EB382" d="M585.336 583.623C592.968 583.303 598.31 589.063 595.465 596.194C574.245 649.383 535.191 694.186 486.234 723.715C478.226 728.545 466.611 735.599 457.778 738.111C451.262 738.383 445.096 734.641 446.692 728.137C448.449 720.972 466.575 714.117 472.575 710.733C506.107 691.61 534.736 664.956 556.204 632.875C566.111 617.86 573.336 602.952 581.019 586.79C581.636 585.493 584.061 584.291 585.336 583.623Z"/><path fill="#0EB382" d="M507.873 511.13C519.304 509.766 520.845 516.815 519.316 526.534C509.935 586.13 470.001 631.879 417.347 658.779C408.44 663.329 400.264 667.756 390.624 670.688C383.295 672.4 378.411 668.398 379.54 660.779C380.169 655.546 386.807 653.688 391.076 651.953C415.704 641.943 440.182 626.564 458.889 607.56C476.872 589.52 490.185 567.367 497.674 543.02C499.881 535.938 501.53 529.224 502.754 521.881C503.557 517.067 503.784 514.071 507.873 511.13Z"/></svg>