<?xml version="1.0" encoding="utf-8" ?><svg xmlns="http://www.w3.org/2000/svg" xmlns:xlink="http://www.w3.org/1999/xlink" width="1024" height="1024" viewBox="0 0 1024 1024"><path fill="#0E9D6D" d="M406.866 211.715C411.544 211.4 420.528 212.165 425.535 212.471L460.917 214.747L499.513 216.983C509.374 217.556 525.463 215.544 529.181 226.044C531.111 231.493 529.591 234.475 527.371 239.27C519.981 255.23 511.394 270.603 503.648 286.354C498.63 296.539 493.54 306.688 488.379 316.801C485.009 323.451 481.672 329.467 478.061 335.948C471.719 347.331 455.597 344.919 452.623 332.983C452.023 330.509 452.067 327.924 452.749 325.473C454.076 320.846 459.347 311.055 461.766 306.374C468.707 292.944 475.848 277.58 483.311 264.554C480.881 265.778 478.274 266.785 475.829 268.008C414.622 298.62 371.779 366.289 376.194 435.215C378.662 479.091 398.475 520.185 431.266 549.442C463.698 577.939 503.795 593.383 547.373 590.98C579.525 589.207 614.238 575.54 635.811 550.953C660.85 522.416 674.873 480.353 672.192 442.299C667.948 445.426 662.319 451.354 658.476 455.206L637.909 475.892C634.319 479.512 630.13 484.174 626.015 486.931C624.154 488.198 621.993 488.955 619.748 489.125C608.097 490.094 600.772 477.604 607.175 467.914C610.02 463.609 614.098 460.1 617.699 456.375C623.938 449.837 630.24 443.358 636.603 436.941C645.712 427.486 654.992 418.198 664.438 409.081C671.43 402.23 681.599 387.767 692.863 394.529C695.49 396.107 700.155 401.478 702.638 403.979L722.283 423.767L749.087 450.618C757.035 458.538 765.426 464.41 767.784 475.72C765.802 482.024 762.315 488.312 754.997 489.145C749.319 489.791 745.273 486.73 741.535 482.859C730.429 471.359 718.285 460.868 707.682 448.886C705.42 446.33 703.279 443.982 700.6 441.86C701.413 459.667 700.889 471.817 697.139 489.309C677.172 582.445 591.502 636.034 498.696 615.042C448.052 603.586 404.974 571.904 376.814 528.275C350.116 486.912 341.111 433.699 351.193 385.714C361.022 340.505 387.527 300.664 422.399 270.648C435.341 259.508 448.253 251.904 462.467 242.839C450.363 241.752 437.737 241.739 425.627 240.532C419.025 239.874 406.105 240.726 400.81 237.483C397.571 235.508 395.298 232.276 394.533 228.56C392.82 220.379 398.823 213.114 406.866 211.715Z"/><path fill="#0E9D6D" d="M198.044 307.755C219.26 307.533 236.348 306.188 254.641 319.283C277.751 335.827 281.568 357.448 289.823 382.742L318.326 469.926C323.972 487.27 330.621 508.866 337.446 525.464C354.036 565.813 383.624 598.868 420.369 622.226C468.926 653.076 527.734 663.41 583.899 650.964C632.162 640.357 675.152 613.102 705.334 573.977C712.995 563.939 718.157 555.113 724.335 544.174C726.532 540.286 730.274 536.944 734.839 536.078C738.604 535.381 742.49 536.287 745.558 538.578C756.583 546.815 748.343 559.966 742.98 568.752C737.949 576.994 732.48 584.969 726.507 592.556C686.773 641.652 634.925 672.334 572.298 681.709C456.999 698.968 337.438 627.791 303.674 515.131C300.5 504.541 296.536 493.549 293.094 482.947L264.991 397.487C260.066 382.5 254.486 358.721 244.61 348.025C239.931 342.912 233.899 339.23 227.214 337.404C217.924 334.854 206.262 336.136 196.545 335.934C184.452 335.683 172.208 336.219 160.11 335.98C156.249 335.904 153.477 334.852 150.43 332.58C144.957 328.498 143.446 318.226 148.27 313.16C154.689 306.261 164.854 308.122 173.291 307.966C181.556 307.951 189.733 308.167 198.044 307.755Z"/><path fill="#0E9D6D" d="M644.306 692.738C678.766 690.45 708.568 716.506 710.902 750.963C713.236 785.421 687.219 815.257 652.765 817.636C618.246 820.02 588.341 793.945 586.003 759.422C583.665 724.9 609.781 695.03 644.306 692.738ZM652.743 789.265C671.49 786.834 684.745 769.707 682.396 750.949C680.047 732.192 662.977 718.862 644.21 721.129C625.326 723.411 611.896 740.609 614.259 759.483C616.623 778.356 633.88 791.712 652.743 789.265Z"/><path fill="#0E9D6D" d="M437.674 692.887C472.05 690.989 501.503 717.213 503.593 751.577C505.682 785.941 479.624 815.54 445.272 817.822C410.648 820.121 380.762 793.811 378.656 759.174C376.55 724.538 403.027 694.8 437.674 692.887ZM444.741 789.847C463.639 787.918 477.39 771.024 475.442 752.127C473.495 733.231 456.588 719.497 437.693 721.462C418.824 723.426 405.113 740.304 407.057 759.175C409.002 778.046 425.868 791.774 444.741 789.847Z"/></svg>