<?xml version="1.0" encoding="utf-8" ?><svg xmlns="http://www.w3.org/2000/svg" xmlns:xlink="http://www.w3.org/1999/xlink" width="1024" height="1024" viewBox="0 0 1024 1024"><path fill="#0A9362" d="M619.264 390.637C625.787 390.233 632.259 392.285 637.041 397.07C650.245 410.279 663.947 423.74 676.652 437.403C680.254 441.105 681.917 452.448 678.565 456.619C666.034 472.214 649.596 485.619 636.072 500.516C629.727 507.506 622.125 513.796 615.494 520.251C604.264 531.33 593.109 542.484 582.029 553.713L548.863 586.495C538.672 596.51 532.084 606.458 516.842 606.384C503.086 606.317 494.436 594.271 485.551 585.358L457.055 556.813C439.85 539.164 421.249 521.597 404.37 503.593C401.794 500.846 399.786 496.244 399.219 492.499C396.669 475.668 408.827 468.115 419.082 457.566C426.193 450.44 432.82 442.475 441.209 436.606C446.981 432.567 458.616 432.945 465.055 436.299C483.561 449.724 500.004 471.796 517.239 486.357C523.231 481.184 534.976 468.683 541.208 462.496L586.151 418.296C591.502 412.996 596.8 407.637 602.188 402.374C607.549 397.137 611.696 392.371 619.264 390.637ZM456.569 525.468C471.044 539.648 485.005 554.076 499.342 568.35C503.804 572.792 513.319 582.623 517.655 585.712C526.733 577.984 533.374 570.584 541.812 562.499C570.905 534.623 598.687 505.4 627.578 477.31C637.626 467.54 646.908 457.568 657.312 448.099C651.264 441.809 644.731 435.465 638.517 429.277C633.796 424.576 627.296 417.66 622.304 413.573L621.712 414.05C614.765 419.709 602.506 432.718 595.716 439.456L546.784 487.948C539.306 495.409 531.98 503.092 524.091 510.165C516.548 516.911 510.886 512.398 505.306 506.195C494.204 493.91 482.424 481.462 470.612 470.056C452.212 452.291 455.997 450.334 437.485 469.606C432.8 474.484 423.042 481.698 420.845 487.996C421.183 491.973 451.447 520.808 456.569 525.468Z"/><path fill="#0A9362" d="M508.815 269.249C518.788 269.228 528.758 269.626 538.698 270.443C550.483 271.493 562.112 274.002 573.544 276.961C622.173 289.235 665.648 316.632 697.705 355.203C721.47 383.648 749.336 433.223 751.816 473.443C752.196 479.61 737.384 486.91 732.259 490.428C713.417 503.361 693.264 515.344 674.355 528.204C674.205 528.334 674.055 528.463 673.906 528.592C672.073 537.925 671.714 546.669 669.341 556.171C651.035 629.487 580.034 680.45 504.876 676.474C475.342 675.011 446.779 665.455 422.311 648.85C416.916 645.226 412.84 642.56 408.082 637.855C399.458 629.598 408.177 614.396 419.573 619.078C422.056 620.062 424.305 621.707 426.394 623.373C445.208 638.372 465.12 648.073 489.019 652.186C526.05 658.814 564.186 650.133 594.699 628.128C621.34 609.197 641.792 579.771 648.561 547.61C650.96 536.211 650.631 526.761 652.425 516.052C656.654 512.045 672.099 502.619 677.616 499.1C694.78 488.329 711.881 477.457 728.918 466.485C725.606 450.382 717.615 429.506 710.508 414.749C668.891 331.877 580.634 281.177 487.762 292.344C429.054 299.212 375.458 329.06 338.706 375.355C280.655 449.223 275.311 554.458 327.764 632.814C332.04 640.608 347.316 653.714 338.419 662.977C326.367 675.525 316.035 654.696 310.366 646.687C278.83 602.135 265.991 543.2 270.671 489.451C274.433 448.241 288.773 408.7 312.302 374.657C319.395 364.348 325.995 355.321 334.658 346.165C373.169 305.366 424.416 278.886 479.974 271.077C488.638 269.915 500.065 269.48 508.815 269.249Z"/><path fill="#0A9362" d="M503.423 346.259C526.162 345.102 548.904 348.464 570.334 356.151C579.223 359.357 596.637 365.216 587.848 378.936C582.644 386.178 574.444 382.447 568.23 379.766C542.681 368.742 517.498 365.663 490.04 369.709C453.434 375.33 420.504 395.117 398.355 424.8C379.342 450.958 369.431 482.629 370.143 514.959C370.307 520.8 371.361 527.654 372.238 533.506C387.717 540.903 410.259 544.415 419.979 559.783C434.101 582.111 413.18 601.976 400.63 619.157L378.544 649.507C375.787 653.25 373.075 656.957 370.491 660.842C360.133 676.415 375.855 684.803 386.709 692.671C413.317 711.958 444.514 724.748 476.962 730.167C535.06 739.61 594.527 725.528 642.221 691.035C689.129 656.908 720.631 605.609 729.849 548.337C730.874 540.626 730.939 532.35 732.477 524.789C733.143 521.517 734.714 518.31 737.627 516.49C740.142 514.919 743.629 514.647 746.468 515.341C749.121 515.99 751.229 517.659 752.532 520.048C758.231 530.498 747.709 572.982 744.075 585.042C725.515 646.627 680.391 698.006 624.067 728.058C568.752 757.572 500.866 762.987 441.145 744.757C415.202 736.838 362.639 711.724 350.207 687.973C346.002 679.938 344.071 669.601 346.338 660.706C347.292 656.967 349.149 653.465 351.16 650.196C355.694 642.825 361.436 635.924 366.546 628.925C374.645 617.831 382.496 606.558 390.751 595.58C394.538 590.545 401.186 583.59 402.805 577.554C403.598 574.597 402.232 571.475 400.672 569.031C400.567 568.866 400.459 568.705 400.352 568.542C389.574 564.436 358.938 554.425 352.056 547.44C350.057 540.326 349.059 528.23 348.629 520.692C343.446 429.81 411.143 350.893 503.423 346.259Z"/></svg>